<mxfile host="app.diagrams.net" modified="2024-01-24T00:51:02.517Z" agent="Mozilla/5.0 (Windows NT 10.0; Win64; x64) AppleWebKit/537.36 (KHTML, like Gecko) Chrome/120.0.0.0 Safari/537.36" etag="AYhEEOc5JspOEE_3wXhY" version="22.1.21" type="github">
  <diagram name="Страница — 1" id="ydNr421X3AxK_NGSpcW-">
    <mxGraphModel dx="2868" dy="391" grid="1" gridSize="10" guides="1" tooltips="1" connect="1" arrows="1" fold="1" page="1" pageScale="1" pageWidth="827" pageHeight="1169" math="0" shadow="0">
      <root>
        <mxCell id="0" />
        <mxCell id="1" parent="0" />
        <mxCell id="Vahfz4YzMRWOSU6t06KZ-3" style="edgeStyle=orthogonalEdgeStyle;rounded=0;orthogonalLoop=1;jettySize=auto;html=1;exitX=0.5;exitY=1;exitDx=0;exitDy=0;" parent="1" source="Vahfz4YzMRWOSU6t06KZ-1" target="Vahfz4YzMRWOSU6t06KZ-2" edge="1">
          <mxGeometry relative="1" as="geometry" />
        </mxCell>
        <mxCell id="Vahfz4YzMRWOSU6t06KZ-1" value="Начало" style="ellipse;whiteSpace=wrap;html=1;" parent="1" vertex="1">
          <mxGeometry x="580" y="1280" width="120" height="80" as="geometry" />
        </mxCell>
        <mxCell id="Vahfz4YzMRWOSU6t06KZ-5" style="edgeStyle=orthogonalEdgeStyle;rounded=0;orthogonalLoop=1;jettySize=auto;html=1;exitX=0.5;exitY=1;exitDx=0;exitDy=0;" parent="1" source="Vahfz4YzMRWOSU6t06KZ-2" target="Vahfz4YzMRWOSU6t06KZ-4" edge="1">
          <mxGeometry relative="1" as="geometry" />
        </mxCell>
        <mxCell id="Vahfz4YzMRWOSU6t06KZ-2" value="объявляем переменных" style="rounded=0;whiteSpace=wrap;html=1;" parent="1" vertex="1">
          <mxGeometry x="580" y="1410" width="120" height="60" as="geometry" />
        </mxCell>
        <mxCell id="Vahfz4YzMRWOSU6t06KZ-7" style="edgeStyle=orthogonalEdgeStyle;rounded=0;orthogonalLoop=1;jettySize=auto;html=1;exitX=0.5;exitY=1;exitDx=0;exitDy=0;" parent="1" source="Vahfz4YzMRWOSU6t06KZ-4" target="Vahfz4YzMRWOSU6t06KZ-6" edge="1">
          <mxGeometry relative="1" as="geometry" />
        </mxCell>
        <mxCell id="Vahfz4YzMRWOSU6t06KZ-4" value="Вывод заголовка массива" style="rounded=0;whiteSpace=wrap;html=1;" parent="1" vertex="1">
          <mxGeometry x="580" y="1520" width="120" height="60" as="geometry" />
        </mxCell>
        <mxCell id="Vahfz4YzMRWOSU6t06KZ-16" style="edgeStyle=orthogonalEdgeStyle;rounded=0;orthogonalLoop=1;jettySize=auto;html=1;exitX=1;exitY=0.5;exitDx=0;exitDy=0;entryX=0.5;entryY=0;entryDx=0;entryDy=0;" parent="1" source="Vahfz4YzMRWOSU6t06KZ-6" target="Vahfz4YzMRWOSU6t06KZ-9" edge="1">
          <mxGeometry relative="1" as="geometry" />
        </mxCell>
        <mxCell id="Vahfz4YzMRWOSU6t06KZ-20" style="edgeStyle=orthogonalEdgeStyle;rounded=0;orthogonalLoop=1;jettySize=auto;html=1;entryX=1;entryY=0.5;entryDx=0;entryDy=0;" parent="1" source="Vahfz4YzMRWOSU6t06KZ-6" target="Vahfz4YzMRWOSU6t06KZ-8" edge="1">
          <mxGeometry relative="1" as="geometry" />
        </mxCell>
        <mxCell id="Vahfz4YzMRWOSU6t06KZ-6" value="i=0;i=mas; i++" style="rhombus;whiteSpace=wrap;html=1;" parent="1" vertex="1">
          <mxGeometry x="545" y="1620" width="190" height="120" as="geometry" />
        </mxCell>
        <mxCell id="Vahfz4YzMRWOSU6t06KZ-14" style="edgeStyle=orthogonalEdgeStyle;rounded=0;orthogonalLoop=1;jettySize=auto;html=1;exitX=0.5;exitY=1;exitDx=0;exitDy=0;" parent="1" source="Vahfz4YzMRWOSU6t06KZ-8" target="Vahfz4YzMRWOSU6t06KZ-12" edge="1">
          <mxGeometry relative="1" as="geometry" />
        </mxCell>
        <mxCell id="Vahfz4YzMRWOSU6t06KZ-8" value="Вывод элемента массива" style="rounded=0;whiteSpace=wrap;html=1;" parent="1" vertex="1">
          <mxGeometry x="430" y="1770" width="120" height="60" as="geometry" />
        </mxCell>
        <mxCell id="Vahfz4YzMRWOSU6t06KZ-22" style="edgeStyle=orthogonalEdgeStyle;rounded=0;orthogonalLoop=1;jettySize=auto;html=1;exitX=0.5;exitY=1;exitDx=0;exitDy=0;" parent="1" source="Vahfz4YzMRWOSU6t06KZ-9" target="Vahfz4YzMRWOSU6t06KZ-21" edge="1">
          <mxGeometry relative="1" as="geometry" />
        </mxCell>
        <mxCell id="Vahfz4YzMRWOSU6t06KZ-9" value="Вывод суммы" style="rounded=0;whiteSpace=wrap;html=1;" parent="1" vertex="1">
          <mxGeometry x="787" y="1770" width="120" height="60" as="geometry" />
        </mxCell>
        <mxCell id="Vahfz4YzMRWOSU6t06KZ-10" value="После окончания цикла выводится сумма элементов массива" style="text;html=1;strokeColor=none;fillColor=none;align=center;verticalAlign=middle;whiteSpace=wrap;rounded=0;" parent="1" vertex="1">
          <mxGeometry x="920" y="1800" width="130" height="30" as="geometry" />
        </mxCell>
        <mxCell id="Vahfz4YzMRWOSU6t06KZ-11" value="Выводится элемент массива с индексом i." style="text;html=1;strokeColor=none;fillColor=none;align=center;verticalAlign=middle;whiteSpace=wrap;rounded=0;" parent="1" vertex="1">
          <mxGeometry x="430" y="1740" width="133" height="30" as="geometry" />
        </mxCell>
        <mxCell id="Vahfz4YzMRWOSU6t06KZ-19" style="edgeStyle=orthogonalEdgeStyle;rounded=0;orthogonalLoop=1;jettySize=auto;html=1;exitX=0;exitY=0.5;exitDx=0;exitDy=0;entryX=0;entryY=0.5;entryDx=0;entryDy=0;" parent="1" source="Vahfz4YzMRWOSU6t06KZ-12" target="Vahfz4YzMRWOSU6t06KZ-6" edge="1">
          <mxGeometry relative="1" as="geometry" />
        </mxCell>
        <mxCell id="Vahfz4YzMRWOSU6t06KZ-12" value="Обновление суммы" style="rounded=0;whiteSpace=wrap;html=1;" parent="1" vertex="1">
          <mxGeometry x="430" y="1880" width="120" height="60" as="geometry" />
        </mxCell>
        <mxCell id="Vahfz4YzMRWOSU6t06KZ-13" value="Значение элемента с индексом i прибавляется к переменной sum." style="text;html=1;strokeColor=none;fillColor=none;align=center;verticalAlign=middle;whiteSpace=wrap;rounded=0;" parent="1" vertex="1">
          <mxGeometry x="550" y="1895" width="120" height="30" as="geometry" />
        </mxCell>
        <mxCell id="Vahfz4YzMRWOSU6t06KZ-17" value="Управление возвращается к шагу 4 для проверки условия и выполнения следующей итерации цикла." style="text;html=1;strokeColor=none;fillColor=none;align=center;verticalAlign=middle;whiteSpace=wrap;rounded=0;" parent="1" vertex="1">
          <mxGeometry x="380" y="1630" width="177" height="30" as="geometry" />
        </mxCell>
        <mxCell id="Vahfz4YzMRWOSU6t06KZ-21" value="Конец программы" style="ellipse;whiteSpace=wrap;html=1;" parent="1" vertex="1">
          <mxGeometry x="787.01" y="1880" width="120" height="80" as="geometry" />
        </mxCell>
        <mxCell id="Vahfz4YzMRWOSU6t06KZ-25" value="Если условие верно, тогда переходим к выводу элемента массива, если неверно - к выводу суммы." style="text;html=1;strokeColor=none;fillColor=none;align=center;verticalAlign=middle;whiteSpace=wrap;rounded=0;" parent="1" vertex="1">
          <mxGeometry x="723.5" y="1590" width="235" height="30" as="geometry" />
        </mxCell>
        <mxCell id="Vahfz4YzMRWOSU6t06KZ-26" value="Да" style="text;html=1;strokeColor=none;fillColor=none;align=center;verticalAlign=middle;whiteSpace=wrap;rounded=0;" parent="1" vertex="1">
          <mxGeometry x="590" y="1754" width="60" height="30" as="geometry" />
        </mxCell>
        <mxCell id="Vahfz4YzMRWOSU6t06KZ-27" value="Нет" style="text;html=1;strokeColor=none;fillColor=none;align=center;verticalAlign=middle;whiteSpace=wrap;rounded=0;" parent="1" vertex="1">
          <mxGeometry x="787" y="1690" width="60" height="30" as="geometry" />
        </mxCell>
        <mxCell id="Vahfz4YzMRWOSU6t06KZ-29" value="Выводится массив" style="text;html=1;strokeColor=none;fillColor=none;align=center;verticalAlign=middle;whiteSpace=wrap;rounded=0;" parent="1" vertex="1">
          <mxGeometry x="710" y="1510" width="60" height="30" as="geometry" />
        </mxCell>
        <mxCell id="Vahfz4YzMRWOSU6t06KZ-30" value="Здесь мы объявляем переменную sum и массив mas" style="text;html=1;strokeColor=none;fillColor=none;align=center;verticalAlign=middle;whiteSpace=wrap;rounded=0;" parent="1" vertex="1">
          <mxGeometry x="710" y="1425" width="155" height="30" as="geometry" />
        </mxCell>
      </root>
    </mxGraphModel>
  </diagram>
</mxfile>
